<?xml version="1.0" encoding="UTF-8" standalone="no"?>
<svg
   viewBox="0 0 180 247.39"
   version="1.1"
   id="svg28"
   sodipodi:docname="Asset 9 Inverse Long.svg"
   inkscape:version="1.2.2 (b0a8486541, 2022-12-01)"
   xmlns:inkscape="http://www.inkscape.org/namespaces/inkscape"
   xmlns:sodipodi="http://sodipodi.sourceforge.net/DTD/sodipodi-0.dtd"
   xmlns="http://www.w3.org/2000/svg"
   xmlns:svg="http://www.w3.org/2000/svg"
   xmlns:rdf="http://www.w3.org/1999/02/22-rdf-syntax-ns#"
   xmlns:cc="http://creativecommons.org/ns#"
   xmlns:dc="http://purl.org/dc/elements/1.1/">
  <sodipodi:namedview
     id="namedview30"
     pagecolor="#ffffff"
     bordercolor="#000000"
     borderopacity="0.25"
     inkscape:showpageshadow="2"
     inkscape:pageopacity="0.0"
     inkscape:pagecheckerboard="0"
     inkscape:deskcolor="#d1d1d1"
     showgrid="false"
     showguides="false"
     inkscape:zoom="2.8284271"
     inkscape:cx="-10.606602"
     inkscape:cy="121.09204"
     inkscape:window-width="1920"
     inkscape:window-height="1001"
     inkscape:window-x="-9"
     inkscape:window-y="-9"
     inkscape:window-maximized="1"
     inkscape:current-layer="svg28" />
  <defs
     id="defs4">
    <style
       id="style2">.cls-1{fill:#dcddde;}</style>
    <inkscape:path-effect
       effect="fill_between_many"
       method="originald"
       linkedpaths="#Layer_2,0,1"
       id="path-effect621" />
  </defs>
  <title
     id="title6">Asset 9</title>
  <path
     id="rect655"
     style="stroke-width:0.924437"
     d="M 10.439453 0 A 26.74 26.74 0 0 0 0 6.7304688 L 0 7.4492188 A 25.64 25.64 0 0 1 12.240234 0 L 10.439453 0 z M 167.75 0 A 25.61 25.61 0 0 1 180 7.4609375 L 180 6.7304688 A 26.61 26.61 0 0 0 169.55078 0 L 167.75 0 z M 74.359375 2.2304688 A 0.77 0.77 0 0 0 73.679688 2.640625 L 11.439453 2.640625 C 5.709571 2.640625 1.939962 6.5996634 0 9.3496094 L 0 10.699219 C 0.24999525 10.249219 0.59000779 9.7392074 1 9.1992188 A 13.4 13.4 0 0 0 1.3398438 15.320312 L 0 20.320312 L 0 22.240234 L 1.8398438 15.400391 L 1.8398438 15.330078 L 1.8398438 15.259766 A 13.14 13.14 0 0 1 1.7402344 8.3300781 A 12.81 12.81 0 0 1 11.439453 3.390625 L 73.679688 3.390625 A 0.77 0.77 0 0 0 74.359375 3.8007812 A 0.79 0.79 0 1 0 74.359375 2.2304688 z M 105.64062 2.2304688 A 0.79 0.79 0 1 0 105.64062 3.8007812 A 0.77 0.77 0 0 0 106.32031 3.390625 L 168.53906 3.390625 A 12.81 12.81 0 0 1 178.24023 8.3300781 A 13.14 13.14 0 0 1 178.14062 15.259766 L 178.14062 15.330078 L 180 22.240234 L 180 20.320312 L 178.68945 15.339844 A 13.4 13.4 0 0 0 179 9.1992188 C 179.38 9.6992102 179.72 10.249219 180 10.699219 L 180 9.3496094 C 178.07 6.6396634 174.29035 2.640625 168.56055 2.640625 L 106.32031 2.640625 A 0.77 0.77 0 0 0 105.64062 2.2304688 z M 0 225.15039 L 0 227.08008 L 1.3105469 232.05078 A 13.44 13.44 0 0 0 1 238.19922 C 0.62000532 237.69922 0.27999608 237.13922 0 236.69922 L 0 238.05078 C 1.939962 240.80078 5.709571 244.75 11.439453 244.75 L 73.679688 244.75 A 0.77 0.77 0 0 0 74.359375 245.16016 A 0.79 0.79 0 1 0 74.359375 243.58984 A 0.77 0.77 0 0 0 73.679688 244 L 11.460938 244 A 12.81 12.81 0 0 1 1.7597656 239.06055 A 13.14 13.14 0 0 1 1.859375 232.13086 L 1.859375 232.06055 L 0 225.15039 z M 180 225.15039 L 178.16016 231.99023 L 178.16016 232.06055 L 178.16016 232.13086 A 13.17 13.17 0 0 1 178.25977 239.07031 A 12.78 12.78 0 0 1 168.56055 244 L 106.32031 244 A 0.77 0.77 0 0 0 105.64062 243.58984 A 0.79 0.79 0 1 0 105.64062 245.16016 A 0.77 0.77 0 0 0 106.32031 244.75 L 168.56055 244.75 C 174.29035 244.75 178.07 240.80078 180 238.05078 L 180 236.71484 C 179.72488 237.14853 179.39799 237.6848 179.0293 238.16992 L 179 238.19922 A 13.44 13.44 0 0 0 178.68945 232.05078 L 180 227.16016 L 180 225.15039 z M 0 239.93945 L 0 240.66992 A 26.72 26.72 0 0 0 10.449219 247.39062 L 12.25 247.39062 A 25.69 25.69 0 0 1 0 239.93945 z M 180 239.93945 A 25.69 25.69 0 0 1 167.75 247.39062 L 169.55078 247.39062 A 26.72 26.72 0 0 0 180 240.66992 L 180 239.93945 z " />
  <rect
     style="fill:#000000;stroke-width:0.197276"
     id="rect716"
     width="0.51953125"
     height="206.77"
     x="-0.51953125"
     y="20.305752"
     transform="scale(-1,1)" />
  <rect
     style="fill:#000000;stroke-width:0.197275"
     id="rect718"
     width="0.51953125"
     height="206.77"
     x="-180.00031"
     y="20.305752"
     transform="scale(-1,1)" />
  <metadata
     id="metadata720">
    <rdf:RDF>
      <cc:Work
         rdf:about="">
        <dc:title>Asset 9</dc:title>
      </cc:Work>
    </rdf:RDF>
  </metadata>
</svg>
